<?xml version="1.0"?><svg viewBox="0 0 40 40" xmlns="http://www.w3.org/2000/svg"><defs><style>.cls-1{opacity:0.88;}</style></defs><title/><g data-name="Eye Hidden" id="Eye_Hidden"><path d="M21.67,25.2a1,1,0,0,0-.86-.28A4.28,4.28,0,0,1,20,25a5,5,0,0,1-5-5,4.28,4.28,0,0,1,.08-.81,1,1,0,0,0-.28-.86l-3.27-3.26a1,1,0,0,0-1.38,0,22.4,22.4,0,0,0-3.82,4.43,1,1,0,0,0,0,1.08C7.59,22.49,12.35,29,20,29A13.33,13.33,0,0,0,23,28.67,1,1,0,0,0,23.44,27Z"/><path d="M33.67,19.46C32.41,17.51,27.65,11,20,11a13.58,13.58,0,0,0-6.11,1.48l-1.18-1.19a1,1,0,0,0-1.42,1.42l16,16a1,1,0,0,0,1.42,0,1,1,0,0,0,0-1.42l-.82-.81a21.53,21.53,0,0,0,5.78-5.94A1,1,0,0,0,33.67,19.46Zm-9.5,3.29-6.92-6.92a5,5,0,0,1,3.93-.69,4.93,4.93,0,0,1,3.68,3.68A5,5,0,0,1,24.17,22.75Z"/></g></svg>