<svg xmlns="http://www.w3.org/2000/svg" version="1.1" xmlns:xlink="http://www.w3.org/1999/xlink" width="512" height="512" x="0" y="0" viewBox="0 0 24 24" style="enable-background:new 0 0 512 512" xml:space="preserve" class=""><g transform="matrix(1.2000000000000013,0,0,1.2000000000000013,-2.399800014495863,-2.4000000000000092)"><path fill="#000000" fill-rule="evenodd" d="M9.668 13.369a1.884 1.884 0 0 0 0-2.738l-.108-.102C7.545 8.605 5.988 7.12 5.52 4.007 5.352 2.91 6.292 2 7.424 2h9.15c1.132 0 2.072.91 1.906 2.007-.47 3.113-2.026 4.598-4.041 6.522l-.107.102a1.884 1.884 0 0 0 0 2.738l.107.102c2.015 1.924 3.572 3.409 4.041 6.522.166 1.097-.774 2.007-1.906 2.007h-9.15c-1.132 0-2.072-.91-1.906-2.007.47-3.113 2.026-4.598 4.041-6.522zm.683 1.698-.008.006c-1.535 1.373-2.678 2.395-2.827 4.923a.468.468 0 0 0 .168.388.493.493 0 0 0 .32.116h7.992c.144 0 .274-.06.363-.158a.466.466 0 0 0 .124-.346c-.149-2.528-1.291-3.55-2.826-4.923-.406-.363-.84-.751-1.29-1.198a.523.523 0 0 0-.735 0c-.447.444-.878.83-1.281 1.191z" clip-rule="evenodd" opacity="1" data-original="#000000" class=""></path></g></svg>