<svg xmlns="http://www.w3.org/2000/svg" version="1.1" xmlns:xlink="http://www.w3.org/1999/xlink" width="512" height="512" x="0" y="0" viewBox="0 0 512 512" style="enable-background:new 0 0 512 512" xml:space="preserve" class=""><g><path d="M298.138 136.665c-62.065-13.011-110.576-61.522-123.585-123.588a16.455 16.455 0 0 0-32.209.001c-13.01 62.065-61.521 110.575-123.586 123.584a16.455 16.455 0 0 0 0 32.208c62.064 13.011 110.573 61.521 123.583 123.586a16.454 16.454 0 0 0 32.208 0c13.011-62.065 61.523-110.575 123.588-123.583a16.454 16.454 0 0 0 .001-32.208zM270.938 408.484c-29.242-6.129-52.098-28.985-58.229-58.229a16.454 16.454 0 0 0-32.208-.001c-6.131 29.243-28.988 52.099-58.23 58.229a16.455 16.455 0 0 0 0 32.208c29.241 6.13 52.098 28.987 58.228 58.23a16.454 16.454 0 0 0 32.208 0c6.131-29.243 28.988-52.099 58.231-58.229a16.455 16.455 0 0 0 0-32.208zM493.243 256.135c-39.526-8.286-70.419-39.18-78.704-78.705a16.454 16.454 0 0 0-32.208-.001c-8.286 39.526-39.179 70.419-78.705 78.704a16.455 16.455 0 0 0 0 32.208c39.525 8.286 70.418 39.179 78.703 78.705a16.454 16.454 0 0 0 32.208 0c8.287-39.526 39.18-70.419 78.705-78.703a16.454 16.454 0 0 0 .001-32.208z" fill="#000000" opacity="1" data-original="#000000"></path></g></svg>